<svg xmlns="http://www.w3.org/2000/svg" viewBox="0 0 32 32" width="32" height="32">
  <defs>
    <linearGradient id="rocketGradient" x1="0%" y1="0%" x2="100%" y2="100%">
      <stop offset="0%" style="stop-color:#6366f1;stop-opacity:1" />
      <stop offset="50%" style="stop-color:#06b6d4;stop-opacity:1" />
      <stop offset="100%" style="stop-color:#f59e0b;stop-opacity:1" />
    </linearGradient>
    <filter id="glow">
      <feGaussianBlur stdDeviation="2" result="coloredBlur"/>
      <feMerge> 
        <feMergeNode in="coloredBlur"/>
        <feMergeNode in="SourceGraphic"/>
      </feMerge>
    </filter>
  </defs>
  
  <!-- Ракета -->
  <g filter="url(#glow)">
    <!-- Основное тело ракеты -->
    <path d="M16 4 L20 8 L20 20 L12 20 L12 8 Z" fill="url(#rocketGradient)" stroke="#ffffff" stroke-width="0.5"/>
    
    <!-- Нос ракеты -->
    <path d="M16 4 L18 6 L16 8 L14 6 Z" fill="#f59e0b" stroke="#ffffff" stroke-width="0.3"/>
    
    <!-- Крылья -->
    <path d="M12 12 L8 16 L12 18 L12 12 Z" fill="#6366f1" stroke="#ffffff" stroke-width="0.3"/>
    <path d="M20 12 L24 16 L20 18 L20 12 Z" fill="#6366f1" stroke="#ffffff" stroke-width="0.3"/>
    
    <!-- Окно кабины -->
    <circle cx="16" cy="12" r="2" fill="#06b6d4" stroke="#ffffff" stroke-width="0.3"/>
    
    <!-- Двигатели -->
    <rect x="14" y="20" width="4" height="2" fill="#f59e0b" stroke="#ffffff" stroke-width="0.3"/>
    
    <!-- Огонь двигателей -->
    <path d="M14 22 L13 26 L15 28 L16 26 L17 28 L19 26 L18 22 Z" fill="#f59e0b" opacity="0.8"/>
    
    <!-- Дым -->
    <circle cx="15" cy="24" r="1" fill="#94a3b8" opacity="0.6"/>
    <circle cx="17" cy="25" r="0.8" fill="#94a3b8" opacity="0.4"/>
  </g>
</svg>
